<?xml version="1.0" encoding="UTF-8"?>
<svg id="Layer_1" data-name="Layer 1" xmlns="http://www.w3.org/2000/svg" viewBox="0 0 999.99 600.93">
  <defs>
    <style>
      .cls-1 {
        stroke: #000;
        stroke-miterlimit: 10;
      }
    </style>
  </defs>
  <path class="cls-1" d="M962.21,30.77h0c-4.87-1.37-35.66-.65-38.12-5.47-28.16-41.51-119.82-23.87-162.82,1.89-13.35,7.25-28.7,9.21-43.34,5.63C386.03-48.16,29.07,49.95.65,58.04c-.22.06-.18.39.05.4,20.08.96,199.22,4.82,335.18,27.23,139.56,22.79,235.03,61.43,241.08,63.91.14.06.17.24.05.34l-154.95,133.33c-2.11,1.82-4.5,3.24-7.06,4.22-21.36,8.15-126.52,45.85-175.15,67.4-135.2,66.21-110.65,49.19,32.16,24.68,71.66-12.22,116.62-19.28,124.47-17.95.14.02.21.17.14.3-4.16,7.56-29.64,53.29-56.47,89.26-25.82,34.95-56.59,66.31-62.85,73.41-.15.17.05.43.25.31,9.42-5.43,57.27-33.12,103.55-62.35,46.25-29.2,105.41-84.09,117.26-95.23.02-.02.04-.03.06-.04,18.13-8.05,51.57-12.08,128.14-44.65,80.2-33.31,131.97-68.54,134.7-70.41.07-.05.16-.05.23,0,89.68,59.65,210.46,225.13,116.16,347.89-.12.16.03.39.22.32,7.75-2.8,97.82-78.86,115.14-170.62,26.23-139-32.73-224.25-77.32-300.24-28.25-42.17,35.44-86.33,46.53-98.8Z"/>
</svg>